<svg width="171" height="147" viewBox="0 0 171 147" fill="none" xmlns="http://www.w3.org/2000/svg">
<g clip-path="url(#clip0_15_401)">
<path fill-rule="evenodd" clip-rule="evenodd" d="M133.159 18.4492L133.294 18.4883C133.425 18.5355 133.547 18.6069 133.653 18.6982L162.587 43.5508C162.786 43.7219 162.921 43.9566 162.968 44.2148L170.031 82.581C170.091 82.9083 170.007 83.2456 169.799 83.5058L151.81 106.081C151.719 106.195 151.607 106.291 151.48 106.363L119.983 124.295L110.734 146.126C110.572 146.51 110.214 146.775 109.799 146.82C109.385 146.865 108.979 146.683 108.738 146.344L88.695 118.17C88.5817 118.011 88.5105 117.824 88.4889 117.63L86.2633 97.6133L74.7389 95.6621L74.5846 93.3037L87.5026 95.4912L87.5964 95.5107C87.8266 95.5697 88.0281 95.6974 88.1784 95.8701L99.8151 93.9306C99.9024 94.0574 99.9866 94.1785 100.066 94.2939C100.258 94.573 100.427 94.8182 100.567 95.0224L88.5124 97.0322L90.4958 114.873L101.499 96.3789L102.247 97.4697L91.0475 116.296L124.223 103.135L107.814 96.2773L109.865 95.834L125.624 102.419L140.008 84.0615L125.267 89.3838L124.681 88.3183L139.881 82.832L117.926 76.0342L117.093 74.5205L141.092 81.9512L139.462 63.4687L108.459 63.3027L107.507 62.1553L107.531 62.0986L138.556 62.2646L116.935 40.6279L117.452 39.4473L139.201 61.2119L136.916 42.75L117.725 38.8232L118.217 37.6992L136.692 41.4795L132.535 20.7832L117.425 35.8047L116.659 34.876L131.246 20.3721L98.529 12.9297L96.1286 10.0254L133.159 18.4492ZM109.419 143.333L117.687 123.818L91.7897 118.554L109.419 143.333ZM91.7272 117.316L118.235 122.705C118.314 122.62 118.406 122.547 118.507 122.489L118.837 122.301L124.84 104.181L91.7272 117.316ZM120.395 121.414L147.983 105.708L126.235 103.788L120.395 121.414ZM126.968 102.648L149.815 104.664L149.949 104.588L141.601 83.9746L126.968 102.648ZM150.844 103.601L166.95 83.3896H142.66L150.844 103.601ZM142.319 82.1894H166.973L140.72 64.0898L142.319 82.1894ZM140.998 62.8232L167.406 81.0293L160.95 45.957L140.998 62.8232ZM140.47 61.6982L160.35 44.8935L138.145 42.9121L140.47 61.6982ZM137.958 41.6904L159.086 43.5752L134.009 22.0361L137.958 41.6904Z" fill="white"/>
<path fill-rule="evenodd" clip-rule="evenodd" d="M50.1169 10.0996L23.3415 15.2207L50.028 24.6758L50.0212 25.9463L21.0055 15.667L20.9674 15.6748L29.0124 41.2754L49.8483 27.8935L49.6882 29.4228L29.6296 42.3047L46.5837 59.0517L46.4235 60.582L28.8151 43.1865L18.1745 62.3213L46.2624 62.1191L46.2096 62.6299L46.2253 62.8955L46.2507 63.3193L17.9069 63.5224L24.1296 89.9072L24.3278 90.1846L46.3698 65.2412L46.4743 66.9336L25.5026 90.667L48.1696 94.4033L48.3151 96.7598L23.7184 92.7051C23.4174 92.6553 23.148 92.4882 22.9704 92.2402L0.607096 61.0049C0.471325 60.8151 0.396234 60.5887 0.392253 60.3555L0.00162758 37.293C-0.00300332 37.017 0.091329 36.748 0.268229 36.5361L19.1462 13.9463L19.2126 13.873C19.3752 13.7095 19.5842 13.5983 19.8122 13.5547L50.1315 7.75585L50.1169 10.0996ZM22.2907 87.3389L16.6579 63.4551L3.6403 61.292L22.2907 87.3389ZM2.68327 59.916L16.8317 62.2676L27.7428 42.6465L2.31413 38.0908L2.68327 59.916ZM2.89714 36.9756L27.8044 41.4385L19.9801 16.5332L2.89714 36.9756Z" fill="white"/>
<path d="M92.1012 82.8808C92.141 82.9362 92.1806 82.9929 92.2214 83.0498L74.5573 92.874L74.4704 91.5478L91.5104 82.0713L92.1012 82.8808Z" fill="white"/>
<path d="M78.1061 0.01659C78.3924 -0.0328096 78.689 0.0289745 78.9342 0.190418L89.2106 6.95702L84.6745 6.72362L78.111 2.40136L66.3317 5.78026L59.2604 5.41698L77.984 0.0449103L78.1061 0.01659Z" fill="white"/>
<path d="M70.7831 93.3996L52.5907 95.3918L69.0487 66.7541L70.7831 93.3996Z" fill="white"/>
<path d="M68.536 65.2385L51.9569 94.0851L50.0614 63.3654L68.536 65.2385Z" fill="white"/>
<path d="M121.015 89.5363L103.97 93.2199C103.968 93.2179 103.967 93.2151 103.966 93.2131C103.807 92.969 103.568 92.6147 103.271 92.1789C102.676 91.3056 101.836 90.0907 100.894 88.7414C99.1875 86.2946 97.1437 83.3987 95.6249 81.2766L112.837 74.6642L121.015 89.5363Z" fill="white"/>
<path d="M112.114 73.6555L95.9081 79.882L103.911 63.7726L112.114 73.6555Z" fill="white"/>
<path d="M94.5878 79.8439L84.0272 65.3752L102.76 63.3908L94.5878 79.8439Z" fill="white"/>
<path d="M81.7352 64.2746L70.118 64.1408V48.423L81.7352 64.2746Z" fill="white"/>
<path d="M102.463 62.216L84.1571 64.1545L92.3368 52.1838L102.463 62.216Z" fill="white"/>
<path d="M68.9178 64.0705L50.9384 62.2492L68.9178 47.8391V64.0705Z" fill="white"/>
<path d="M91.243 51.6574L82.911 63.8498L70.9208 47.4894L91.243 51.6574Z" fill="white"/>
<path d="M103.585 61.6379L93.2167 51.3654L113.455 39.1017L103.585 61.6379Z" fill="white"/>
<path d="M68.6718 46.4973L50.1659 61.3312L53.6649 27.9474L68.6718 46.4973Z" fill="white"/>
<path fill-rule="evenodd" clip-rule="evenodd" d="M97.91 37.551L91.9022 50.5676L70.118 46.0988V28.968L87.3954 24.716L97.91 37.551ZM71.9188 30.3781V44.6301L90.8651 48.5168L95.8026 37.8195L86.7216 26.7346L71.9188 30.3781Z" fill="white"/>
<path d="M112.647 38.1877L93.6141 49.7209L98.994 38.0646L112.647 38.1877Z" fill="white"/>
<path d="M68.9178 29.0275V44.8937L54.6239 27.2258L68.9178 29.0275Z" fill="white"/>
<path d="M113.481 36.9963L99.0887 36.8664L93.3915 12.676L113.481 36.9963Z" fill="white"/>
<path d="M97.4344 35.0773L88.2938 23.9191L92.118 12.506L97.4344 35.0773Z" fill="white"/>
<path d="M54.6346 11.007C55.7345 12.3923 57.2565 14.2859 58.9442 16.3781C61.9452 20.0985 65.4814 24.4606 68.1141 27.717L53.8231 25.9152L53.9178 10.0988C54.1305 10.3695 54.3705 10.6743 54.6346 11.007Z" fill="white"/>
<path d="M90.6112 10.8342L69.6093 27.6564C66.9296 24.3396 63.1009 19.6199 59.8778 15.6242C58.1906 13.5325 56.6718 11.6423 55.5751 10.2609C55.1794 9.76257 54.8399 9.33046 54.5673 8.98065L90.6112 10.8342Z" fill="white"/>
<path d="M87.1552 23.5392L72.0175 27.2658L91.0028 12.0598L87.1552 23.5392Z" fill="white"/>
<path fill-rule="evenodd" clip-rule="evenodd" d="M93.7899 7.19354L118.486 37.0881L107.507 62.1555L115.767 72.1076L126.802 92.174L102.254 97.4797L101.039 95.7082L101.038 95.7062L101.035 95.7023L101.022 95.6838C101.011 95.6675 100.994 95.6424 100.973 95.6105C100.929 95.5465 100.863 95.4521 100.779 95.3303C100.611 95.0861 100.368 94.7319 100.066 94.2941C99.4633 93.4183 98.6279 92.2056 97.6971 90.8615C95.8361 88.1741 93.6102 84.98 92.1014 82.881L81.2889 68.0705L72.9354 67.9738L74.8124 96.7824L48.495 99.6633L46.2255 62.8957L46.2098 62.6301L46.2372 62.3644L50.0194 26.2687L50.1493 4.94843L93.7899 7.19354ZM53.3593 7.71698C53.1958 7.70871 53.0359 7.76773 52.9169 7.88007C52.8277 7.96429 52.7672 8.07349 52.7421 8.19159L52.7294 8.31268L52.62 26.4064L48.8231 62.6359C48.8197 62.6688 48.8191 62.7025 48.8212 62.7355L50.8837 96.1545C50.894 96.3179 50.9704 96.4709 51.0956 96.5764C51.221 96.6818 51.3848 96.7309 51.5477 96.7131L71.4852 94.5314C71.8042 94.4964 72.039 94.2159 72.0184 93.8957L70.1591 65.342L82.621 65.4855L94.1991 81.3449C95.7409 83.4894 98.029 86.7316 99.91 89.4279C100.851 90.776 101.689 91.9867 102.28 92.8547C102.576 93.2889 102.809 93.6349 102.961 93.8683C103.034 93.9804 103.085 94.0611 103.114 94.1105C103.171 94.2601 103.286 94.3859 103.44 94.4514C103.46 94.4598 103.646 94.539 103.858 94.4719L122.056 90.5392C122.241 90.4993 122.397 90.3745 122.475 90.2023C122.554 90.0301 122.546 89.8302 122.455 89.6642L113.637 73.6271C113.618 73.5941 113.596 73.5625 113.572 73.5334L104.481 62.5812L115.315 37.8478C115.406 37.6409 115.372 37.4001 115.228 37.2258L92.6825 9.93475C92.6022 9.83753 92.4938 9.7684 92.3739 9.73651L92.2509 9.71698L53.3593 7.71698Z" fill="white"/>
</g>
<defs>
<clipPath id="clip0_15_401">
<rect width="170.05" height="146.83" fill="white"/>
</clipPath>
</defs>
</svg>
