<svg width="295" height="238" viewBox="0 0 295 238" fill="none" xmlns="http://www.w3.org/2000/svg">
<g clip-path="url(#clip0_1604_8973)">
<path fill-rule="evenodd" clip-rule="evenodd" d="M259.987 153.14H294.586V141.446H259.987C260.079 143.383 260.125 145.333 260.125 147.293C260.125 149.254 260.079 151.203 259.987 153.14ZM248.53 95.5949L277.776 78.7099L271.929 68.5832L242.983 85.2951C244.993 88.6198 246.845 92.0568 248.53 95.5949ZM210.133 50.1446L226.003 22.6568L215.876 16.8102L200.196 43.9684C203.617 45.8539 206.933 47.9166 210.133 50.1446ZM153.14 30.4972V0H141.446V30.4972C143.383 30.3947 145.332 30.3429 147.293 30.3429C149.254 30.3429 151.203 30.3947 153.14 30.4972ZM47.7264 92.2262L17.4699 77.4691L12.3439 87.979L42.884 102.874C44.3291 99.2289 45.9467 95.6759 47.7264 92.2262ZM34.5995 141.446H0V153.14H34.5995C34.5075 151.203 34.461 149.254 34.461 147.293C34.461 145.333 34.5075 143.383 34.5995 141.446ZM81.0031 85.3718L61.0263 65.395L88.1256 71.8741L67.1923 43.29L105.871 62.7356L104.809 42.3336L119.927 61.2099C128.282 58.6489 137.153 57.2707 146.347 57.2707C196.065 57.2707 236.369 97.5751 236.369 147.293C236.369 197.011 196.065 237.315 146.347 237.315C96.629 237.315 56.3246 197.011 56.3246 147.293C56.3246 123.305 65.7074 101.508 81.0031 85.3718ZM109.202 121.504L147.5 141.902L185.798 121.504L147.5 99.3923L109.202 121.504ZM189.595 129.678L152 149.702V194.01L189.595 172.304V129.678ZM143 194.01V149.702L105.405 129.678V172.304L143 194.01ZM150 90.4434C148.453 89.5502 146.547 89.5502 145 90.4434L98.9045 117.057C97.3575 117.95 96.4045 119.6 96.4045 121.387V174.613C96.4045 176.4 97.3575 178.05 98.9045 178.943L145 205.557C146.547 206.45 148.453 206.45 150 205.557L196.095 178.943C197.643 178.05 198.595 176.4 198.595 174.613V121.387C198.595 119.6 197.643 117.95 196.095 117.057L150 90.4434ZM167.23 162.079C169.903 161.564 172.571 163.369 173.086 166.042C173.601 168.715 171.796 171.383 169.123 171.898C166.45 172.414 163.782 170.608 163.267 167.935C162.751 165.262 164.557 162.595 167.23 162.079ZM181.201 155.312C180.686 152.639 178.018 150.834 175.345 151.349C172.672 151.864 170.867 154.532 171.382 157.205C171.898 159.878 174.565 161.683 177.238 161.168C179.911 160.653 181.717 157.985 181.201 155.312ZM162.41 116.757C165.083 116.242 167.75 118.047 168.266 120.72C168.781 123.393 166.976 126.061 164.303 126.576C161.63 127.092 158.962 125.286 158.447 122.613C157.931 119.94 159.737 117.273 162.41 116.757ZM130.266 161.72C129.75 159.047 127.083 157.242 124.41 157.757C121.737 158.273 119.931 160.94 120.447 163.613C120.962 166.286 123.63 168.092 126.303 167.576C128.976 167.061 130.781 164.393 130.266 161.72ZM132.41 116.757C135.083 116.242 137.75 118.047 138.266 120.72C138.781 123.393 136.976 126.061 134.303 126.576C131.63 127.092 128.962 125.286 128.447 122.613C127.931 119.94 129.737 117.273 132.41 116.757ZM153.266 120.72C152.75 118.047 150.083 116.242 147.41 116.757C144.737 117.273 142.931 119.94 143.447 122.613C143.962 125.286 146.63 127.092 149.303 126.576C151.976 126.061 153.781 123.393 153.266 120.72Z" fill="white"/>
</g>
<defs>
<clipPath id="clip0_1604_8973">
<rect width="295" height="238" fill="white"/>
</clipPath>
</defs>
</svg>
