<svg width="557" height="521" viewBox="0 0 557 521" fill="none" xmlns="http://www.w3.org/2000/svg">
<g clip-path="url(#clip0_1604_7949)">
<path d="M89.2844 375V380.625C91.5969 378.312 94.0969 376.578 96.7844 375.422C99.4719 374.266 102.347 373.688 105.409 373.688C112.066 373.688 117.722 376.203 122.378 381.234C127.034 386.266 129.363 392.719 129.363 400.594C129.363 408.188 126.956 414.547 122.144 419.672C117.331 424.766 111.628 427.312 105.034 427.312C102.097 427.312 99.3625 426.797 96.8313 425.766C94.3 424.703 91.7844 422.984 89.2844 420.609V444.656H76.5813V375H89.2844ZM102.738 385.5C98.7063 385.5 95.3625 386.875 92.7063 389.625C90.05 392.375 88.7219 395.969 88.7219 400.406C88.7219 404.938 90.05 408.609 92.7063 411.422C95.3625 414.203 98.7063 415.594 102.738 415.594C106.644 415.594 109.925 414.172 112.581 411.328C115.269 408.484 116.613 404.859 116.613 400.453C116.613 396.078 115.3 392.5 112.675 389.719C110.05 386.906 106.738 385.5 102.738 385.5ZM159.372 354C161.622 354 163.544 354.812 165.138 356.438C166.763 358.062 167.575 360.031 167.575 362.344C167.575 364.625 166.778 366.578 165.184 368.203C163.591 369.797 161.684 370.594 159.466 370.594C157.184 370.594 155.231 369.781 153.606 368.156C152.013 366.5 151.216 364.5 151.216 362.156C151.216 359.906 152.013 357.984 153.606 356.391C155.2 354.797 157.122 354 159.372 354ZM152.95 375H165.794V426H152.95V375ZM191.913 355.312H204.709V396.047L223.553 375H239.584L217.647 399.469L242.256 426H226.366L204.709 402.516V426H191.913V355.312ZM285.859 373.688C290.672 373.688 295.188 374.891 299.406 377.297C303.656 379.703 306.969 382.969 309.344 387.094C311.719 391.219 312.906 395.672 312.906 400.453C312.906 405.266 311.703 409.766 309.297 413.953C306.922 418.141 303.672 421.422 299.547 423.797C295.422 426.141 290.875 427.312 285.906 427.312C278.594 427.312 272.344 424.719 267.156 419.531C262 414.312 259.422 407.984 259.422 400.547C259.422 392.578 262.344 385.938 268.188 380.625C273.312 376 279.203 373.688 285.859 373.688ZM286.047 385.734C282.078 385.734 278.766 387.125 276.109 389.906C273.484 392.656 272.172 396.188 272.172 400.5C272.172 404.938 273.469 408.531 276.062 411.281C278.688 414.031 282 415.406 286 415.406C290 415.406 293.328 414.016 295.984 411.234C298.641 408.453 299.969 404.875 299.969 400.5C299.969 396.125 298.656 392.578 296.031 389.859C293.438 387.109 290.109 385.734 286.047 385.734ZM331.713 375H336.259C336.291 368.312 336.4 364.359 336.588 363.141C336.931 360.328 338.103 358.109 340.103 356.484C342.134 354.828 344.994 354 348.681 354C351.338 354 354.338 354.609 357.681 355.828V365.578C355.838 365.047 354.322 364.781 353.134 364.781C351.634 364.781 350.541 365.094 349.853 365.719C349.353 366.188 349.103 367.156 349.103 368.625L349.056 375H357.166V385.875H349.056V426H336.259V385.875H331.713V375ZM373.441 375H386.519L399.784 407.016L414.409 375H427.534L395.566 444.656H382.347L392.847 422.203L373.441 375ZM446.997 375H486.138L463.169 415.172H484.825V426H443.481L466.544 385.828H446.997V375Z" fill="white"/>
<path fill-rule="evenodd" clip-rule="evenodd" d="M425.586 223.14H390.987C391.079 221.203 391.125 219.254 391.125 217.293C391.125 215.333 391.079 213.383 390.987 211.446H425.586V223.14ZM408.776 148.71L379.53 165.595C377.845 162.057 375.993 158.62 373.983 155.295L402.929 138.583L408.776 148.71ZM357.003 92.6568L341.133 120.145C337.933 117.917 334.617 115.854 331.196 113.968L346.876 86.8102L357.003 92.6568ZM284.14 70V100.497C282.203 100.395 280.254 100.343 278.293 100.343C276.332 100.343 274.383 100.395 272.446 100.497V70H284.14ZM148.47 147.469L178.726 162.226C176.947 165.676 175.329 169.229 173.884 172.874L143.344 157.979L148.47 147.469ZM131 211.446H165.6C165.508 213.383 165.461 215.333 165.461 217.293C165.461 219.254 165.508 221.203 165.6 223.14H131V211.446ZM192.026 135.395L212.003 155.372C196.707 171.508 187.325 193.305 187.325 217.293C187.325 267.011 227.629 307.315 277.347 307.315C327.065 307.315 367.369 267.011 367.369 217.293C367.369 167.575 327.065 127.271 277.347 127.271C268.153 127.271 259.282 128.649 250.927 131.21L235.809 112.334L236.871 132.736L198.192 113.29L219.126 141.874L192.026 135.395ZM232.483 171.243C230.392 173.002 230 174.291 230 175C230 175.568 230.235 176.461 231.367 177.697L231.776 178.119C234.45 180.73 239.87 183.469 247.86 185.559C256.051 187.703 266.305 189 277.5 189C288.612 189 298.797 187.722 306.958 185.606C315.165 183.479 320.71 180.663 323.363 177.98L323.48 177.86L323.753 177.564C324.782 176.398 325 175.545 325 175C325 174.291 324.608 173.002 322.517 171.243C320.448 169.502 317.186 167.732 312.761 166.158C303.951 163.024 291.485 161 277.5 161C263.515 161 251.049 163.024 242.239 166.158C237.814 167.732 234.552 169.502 232.483 171.243ZM306.975 194.87C298.418 196.864 288.295 198 277.5 198C266.707 198 256.585 196.864 248.029 194.871L271.604 219.169C272.419 220.009 272.875 221.133 272.875 222.303V287.316L282.126 279.354V222.303C282.126 221.133 282.581 220.009 283.396 219.169L306.975 194.87Z" fill="white"/>
</g>
<defs>
<clipPath id="clip0_1604_7949">
<rect width="557" height="521" fill="white"/>
</clipPath>
</defs>
</svg>
