<svg width="295" height="238" viewBox="0 0 295 238" fill="none" xmlns="http://www.w3.org/2000/svg">
<g clip-path="url(#clip0_1604_9117)">
<path fill-rule="evenodd" clip-rule="evenodd" d="M294.586 153.14H259.987C260.079 151.203 260.125 149.254 260.125 147.293C260.125 145.333 260.079 143.383 259.987 141.446H294.586V153.14ZM277.776 78.7099L248.53 95.5949C246.845 92.0568 244.993 88.6198 242.983 85.2951L271.929 68.5832L277.776 78.7099ZM226.003 22.6568L210.133 50.1446C206.933 47.9166 203.617 45.8539 200.196 43.9684L215.876 16.8102L226.003 22.6568ZM153.14 0V30.4972C151.203 30.3947 149.254 30.3429 147.293 30.3429C145.332 30.3429 143.383 30.3947 141.446 30.4972V0H153.14ZM17.4699 77.4691L47.7264 92.2262C45.9467 95.6759 44.3291 99.2289 42.884 102.874L12.3439 87.979L17.4699 77.4691ZM0 141.446H34.5995C34.5075 143.383 34.461 145.333 34.461 147.293C34.461 149.254 34.5075 151.203 34.5995 153.14H0V141.446ZM61.0263 65.395L81.0031 85.3718C65.7074 101.508 56.3246 123.305 56.3246 147.293C56.3246 197.011 96.629 237.315 146.347 237.315C196.065 237.315 236.369 197.011 236.369 147.293C236.369 97.5751 196.065 57.2707 146.347 57.2707C137.153 57.2707 128.282 58.6489 119.927 61.2099L104.809 42.3336L105.871 62.7356L67.1923 43.29L88.1256 71.8741L61.0263 65.395ZM101.483 101.243C99.3916 103.002 99 104.291 99 105C99 105.568 99.2346 106.461 100.367 107.697L100.776 108.119C103.45 110.73 108.87 113.469 116.86 115.559C125.051 117.703 135.305 119 146.5 119C157.612 119 167.797 117.722 175.958 115.606C184.165 113.479 189.71 110.663 192.363 107.98L192.48 107.86L192.753 107.564C193.782 106.398 194 105.545 194 105C194 104.291 193.608 103.002 191.517 101.243C189.448 99.5023 186.186 97.7324 181.761 96.1582C172.951 93.0239 160.485 91 146.5 91C132.515 91 120.049 93.0239 111.239 96.1582C106.814 97.7324 103.552 99.5023 101.483 101.243ZM175.975 124.87C167.418 126.864 157.295 128 146.5 128C135.707 128 125.585 126.864 117.029 124.871L140.604 149.169C141.419 150.009 141.875 151.133 141.875 152.303V217.316L151.126 209.354V152.303C151.126 151.133 151.581 150.009 152.396 149.169L175.975 124.87Z" fill="white"/>
</g>
<defs>
<clipPath id="clip0_1604_9117">
<rect width="295" height="238" fill="white"/>
</clipPath>
</defs>
</svg>
