<svg width="613" height="521" viewBox="0 0 613 521" fill="none" xmlns="http://www.w3.org/2000/svg">
<g clip-path="url(#clip0_1604_7754)">
<path d="M89.4406 375V380.625C91.7531 378.312 94.2531 376.578 96.9406 375.422C99.6281 374.266 102.503 373.688 105.566 373.688C112.222 373.688 117.878 376.203 122.534 381.234C127.191 386.266 129.519 392.719 129.519 400.594C129.519 408.188 127.113 414.547 122.3 419.672C117.488 424.766 111.784 427.312 105.191 427.312C102.253 427.312 99.5188 426.797 96.9875 425.766C94.4563 424.703 91.9406 422.984 89.4406 420.609V444.656H76.7375V375H89.4406ZM102.894 385.5C98.8625 385.5 95.5188 386.875 92.8625 389.625C90.2063 392.375 88.8781 395.969 88.8781 400.406C88.8781 404.938 90.2063 408.609 92.8625 411.422C95.5188 414.203 98.8625 415.594 102.894 415.594C106.8 415.594 110.081 414.172 112.738 411.328C115.425 408.484 116.769 404.859 116.769 400.453C116.769 396.078 115.456 392.5 112.831 389.719C110.206 386.906 106.894 385.5 102.894 385.5ZM159.528 354C161.778 354 163.7 354.812 165.294 356.438C166.919 358.062 167.731 360.031 167.731 362.344C167.731 364.625 166.934 366.578 165.341 368.203C163.747 369.797 161.841 370.594 159.622 370.594C157.341 370.594 155.388 369.781 153.763 368.156C152.169 366.5 151.372 364.5 151.372 362.156C151.372 359.906 152.169 357.984 153.763 356.391C155.356 354.797 157.278 354 159.528 354ZM153.106 375H165.95V426H153.106V375ZM192.069 355.312H204.866V396.047L223.709 375H239.741L217.803 399.469L242.413 426H226.522L204.866 402.516V426H192.069V355.312ZM286.016 373.688C290.828 373.688 295.344 374.891 299.562 377.297C303.812 379.703 307.125 382.969 309.5 387.094C311.875 391.219 313.062 395.672 313.062 400.453C313.062 405.266 311.859 409.766 309.453 413.953C307.078 418.141 303.828 421.422 299.703 423.797C295.578 426.141 291.031 427.312 286.062 427.312C278.75 427.312 272.5 424.719 267.312 419.531C262.156 414.312 259.578 407.984 259.578 400.547C259.578 392.578 262.5 385.938 268.344 380.625C273.469 376 279.359 373.688 286.016 373.688ZM286.203 385.734C282.234 385.734 278.922 387.125 276.266 389.906C273.641 392.656 272.328 396.188 272.328 400.5C272.328 404.938 273.625 408.531 276.219 411.281C278.844 414.031 282.156 415.406 286.156 415.406C290.156 415.406 293.484 414.016 296.141 411.234C298.797 408.453 300.125 404.875 300.125 400.5C300.125 396.125 298.812 392.578 296.188 389.859C293.594 387.109 290.266 385.734 286.203 385.734ZM337.869 375H350.713V380.859C352.9 378.453 355.322 376.656 357.978 375.469C360.666 374.281 363.588 373.688 366.744 373.688C369.931 373.688 372.806 374.469 375.369 376.031C377.931 377.594 379.994 379.875 381.556 382.875C383.588 379.875 386.072 377.594 389.009 376.031C391.978 374.469 395.213 373.688 398.713 373.688C402.338 373.688 405.525 374.531 408.275 376.219C411.025 377.906 412.994 380.109 414.181 382.828C415.4 385.547 416.009 389.969 416.009 396.094V426H403.119V400.125C403.119 394.344 402.4 390.438 400.963 388.406C399.525 386.344 397.369 385.312 394.494 385.312C392.306 385.312 390.338 385.938 388.588 387.188C386.869 388.438 385.588 390.172 384.744 392.391C383.9 394.578 383.478 398.109 383.478 402.984V426H370.588V401.297C370.588 396.734 370.244 393.438 369.556 391.406C368.9 389.344 367.9 387.812 366.556 386.812C365.213 385.812 363.588 385.312 361.681 385.312C359.556 385.312 357.619 385.953 355.869 387.234C354.15 388.484 352.853 390.25 351.978 392.531C351.134 394.812 350.713 398.406 350.713 403.312V426H337.869V375ZM480.331 375H493.081V426H480.331V420.609C477.831 422.984 475.316 424.703 472.784 425.766C470.284 426.797 467.566 427.312 464.628 427.312C458.034 427.312 452.331 424.766 447.519 419.672C442.706 414.547 440.3 408.188 440.3 400.594C440.3 392.719 442.628 386.266 447.284 381.234C451.941 376.203 457.597 373.688 464.253 373.688C467.316 373.688 470.191 374.266 472.878 375.422C475.566 376.578 478.05 378.312 480.331 380.625V375ZM466.878 385.5C462.909 385.5 459.612 386.906 456.987 389.719C454.362 392.5 453.05 396.078 453.05 400.453C453.05 404.859 454.378 408.484 457.034 411.328C459.722 414.172 463.019 415.594 466.925 415.594C470.956 415.594 474.3 414.203 476.956 411.422C479.612 408.609 480.941 404.938 480.941 400.406C480.941 395.969 479.612 392.375 476.956 389.625C474.3 386.875 470.941 385.5 466.878 385.5ZM521.966 356.203H534.716V375H542.309V386.016H534.716V426H521.966V386.016H515.403V375H521.966V356.203Z" fill="white"/>
<mask id="path-2-inside-1_1604_7754" fill="white">
<path fill-rule="evenodd" clip-rule="evenodd" d="M312.554 70V100.492C310.618 100.39 308.669 100.338 306.709 100.338C304.748 100.338 302.799 100.39 300.863 100.492V70H312.554ZM369.538 120.136C366.339 117.909 363.023 115.846 359.603 113.961L375.28 86.8074L385.405 92.653L369.538 120.136ZM407.929 165.579C406.244 162.042 404.392 158.605 402.383 155.281L431.324 138.572L437.17 148.697L407.929 165.579ZM419.522 217.269C419.522 215.308 419.475 213.359 419.383 211.423H453.977V223.114H419.383C419.475 221.178 419.522 219.229 419.522 217.269ZM193.895 217.269C193.895 219.086 193.935 220.894 194.015 222.691H159V211H194.055C193.949 213.076 193.895 215.166 193.895 217.269ZM207.159 162.211C205.379 165.66 203.762 169.212 202.317 172.857L171.782 157.964L176.907 147.456L207.159 162.211ZM306 127C296.677 127 287.684 128.418 279.227 131.05L264.232 112.327L265.294 132.725L226.622 113.283L247.551 141.862L220.457 135.384L240.427 155.355C225.28 171.46 216 193.146 216 217C216 266.706 256.294 307 306 307C355.706 307 396 266.706 396 217C396 167.295 355.706 127 306 127ZM306 192C305.126 192 304.266 191.941 303.424 191.827L290.773 235.866C295.574 237.098 300.521 237.726 305.5 237.726C310.992 237.726 316.446 236.962 321.707 235.465L309.147 191.741C308.123 191.911 307.072 192 306 192ZM287 173C287 179.401 290.165 185.063 295.016 188.505L282.243 232.969C275.597 230.131 269.527 226.102 264.333 221.08C263.936 220.696 263.304 220.696 262.913 221.086L258.477 225.522C258.087 225.913 258.086 226.547 258.482 226.931C264.599 232.869 271.787 237.597 279.669 240.862C279.729 240.887 279.789 240.912 279.85 240.936C279.881 240.949 279.912 240.962 279.943 240.975L272.924 265.41C272.878 265.568 272.873 265.735 272.908 265.894L276.904 284.145L288.488 243.821C294.031 245.264 299.747 246 305.5 246C311.766 246 317.989 245.127 323.992 243.417L335.692 284.145L339.688 265.894C339.723 265.735 339.718 265.568 339.672 265.41L332.48 240.373C339.911 237.133 346.699 232.579 352.517 226.931C352.913 226.547 352.913 225.913 352.522 225.522L348.086 221.086C347.696 220.696 347.063 220.696 346.666 221.08C341.843 225.743 336.266 229.55 330.173 232.342L317.476 188.144C322.047 184.674 325 179.182 325 173C325 162.507 316.493 154 306 154C295.506 154 287 162.507 287 173ZM306 183.105C300.477 183.105 296 178.628 296 173.105C296 167.582 300.477 163.105 306 163.105C311.522 163.105 316 167.582 316 173.105C316 178.628 311.522 183.105 306 183.105Z"/>
</mask>
<path fill-rule="evenodd" clip-rule="evenodd" d="M312.554 70V100.492C310.618 100.39 308.669 100.338 306.709 100.338C304.748 100.338 302.799 100.39 300.863 100.492V70H312.554ZM369.538 120.136C366.339 117.909 363.023 115.846 359.603 113.961L375.28 86.8074L385.405 92.653L369.538 120.136ZM407.929 165.579C406.244 162.042 404.392 158.605 402.383 155.281L431.324 138.572L437.17 148.697L407.929 165.579ZM419.522 217.269C419.522 215.308 419.475 213.359 419.383 211.423H453.977V223.114H419.383C419.475 221.178 419.522 219.229 419.522 217.269ZM193.895 217.269C193.895 219.086 193.935 220.894 194.015 222.691H159V211H194.055C193.949 213.076 193.895 215.166 193.895 217.269ZM207.159 162.211C205.379 165.66 203.762 169.212 202.317 172.857L171.782 157.964L176.907 147.456L207.159 162.211ZM306 127C296.677 127 287.684 128.418 279.227 131.05L264.232 112.327L265.294 132.725L226.622 113.283L247.551 141.862L220.457 135.384L240.427 155.355C225.28 171.46 216 193.146 216 217C216 266.706 256.294 307 306 307C355.706 307 396 266.706 396 217C396 167.295 355.706 127 306 127ZM306 192C305.126 192 304.266 191.941 303.424 191.827L290.773 235.866C295.574 237.098 300.521 237.726 305.5 237.726C310.992 237.726 316.446 236.962 321.707 235.465L309.147 191.741C308.123 191.911 307.072 192 306 192ZM287 173C287 179.401 290.165 185.063 295.016 188.505L282.243 232.969C275.597 230.131 269.527 226.102 264.333 221.08C263.936 220.696 263.304 220.696 262.913 221.086L258.477 225.522C258.087 225.913 258.086 226.547 258.482 226.931C264.599 232.869 271.787 237.597 279.669 240.862C279.729 240.887 279.789 240.912 279.85 240.936C279.881 240.949 279.912 240.962 279.943 240.975L272.924 265.41C272.878 265.568 272.873 265.735 272.908 265.894L276.904 284.145L288.488 243.821C294.031 245.264 299.747 246 305.5 246C311.766 246 317.989 245.127 323.992 243.417L335.692 284.145L339.688 265.894C339.723 265.735 339.718 265.568 339.672 265.41L332.48 240.373C339.911 237.133 346.699 232.579 352.517 226.931C352.913 226.547 352.913 225.913 352.522 225.522L348.086 221.086C347.696 220.696 347.063 220.696 346.666 221.08C341.843 225.743 336.266 229.55 330.173 232.342L317.476 188.144C322.047 184.674 325 179.182 325 173C325 162.507 316.493 154 306 154C295.506 154 287 162.507 287 173ZM306 183.105C300.477 183.105 296 178.628 296 173.105C296 167.582 300.477 163.105 306 163.105C311.522 163.105 316 167.582 316 173.105C316 178.628 311.522 183.105 306 183.105Z" fill="white"/>
<path d="M312.554 100.492L312.026 110.478L322.554 111.035V100.492H312.554ZM312.554 70H322.554V60H312.554V70ZM300.863 100.492H290.863V111.035L301.391 110.478L300.863 100.492ZM300.863 70V60H290.863V70H300.863ZM359.603 113.961L350.943 108.961L345.843 117.795L354.776 122.719L359.603 113.961ZM369.538 120.136L363.824 128.343L372.756 134.562L378.198 125.136L369.538 120.136ZM375.28 86.8074L380.28 78.1471L371.62 73.1471L366.62 81.8074L375.28 86.8074ZM385.405 92.653L394.066 97.653L399.066 88.9928L390.405 83.9928L385.405 92.653ZM402.383 155.281L397.383 146.621L388.548 151.722L393.825 160.453L402.383 155.281ZM407.929 165.579L398.901 169.879L403.555 179.651L412.929 174.239L407.929 165.579ZM431.324 138.572L439.984 133.572L434.984 124.912L426.324 129.912L431.324 138.572ZM437.17 148.697L442.17 157.357L450.83 152.357L445.83 143.697L437.17 148.697ZM419.383 211.423V201.423H408.897L409.395 211.897L419.383 211.423ZM453.977 211.423H463.977V201.423H453.977V211.423ZM453.977 223.114V233.114H463.977V223.114H453.977ZM419.383 223.114L409.395 222.64L408.897 233.114H419.383V223.114ZM194.015 222.691V232.691H204.465L204.005 222.251L194.015 222.691ZM159 222.691H149V232.691H159V222.691ZM159 211V201H149V211H159ZM194.055 211L204.042 211.509L204.577 201H194.055V211ZM202.317 172.857L197.933 181.845L207.635 186.577L211.613 176.542L202.317 172.857ZM207.159 162.211L216.046 166.796L220.735 157.706L211.542 153.223L207.159 162.211ZM171.782 157.964L162.794 153.581L158.41 162.569L167.398 166.952L171.782 157.964ZM176.907 147.456L181.291 138.468L172.303 134.085L167.919 143.073L176.907 147.456ZM279.227 131.05L271.422 137.301L275.686 142.624L282.198 140.598L279.227 131.05ZM264.232 112.327L272.037 106.076L252.63 81.8456L254.245 112.847L264.232 112.327ZM265.294 132.725L260.802 141.66L276.175 149.389L275.28 132.205L265.294 132.725ZM226.622 113.283L231.113 104.349L218.554 119.191L226.622 113.283ZM247.551 141.862L245.226 151.588L271.705 157.919L255.619 135.954L247.551 141.862ZM220.457 135.384L222.782 125.659L188.358 117.428L213.386 142.455L220.457 135.384ZM240.427 155.355L247.711 162.205L254.355 155.141L247.498 148.283L240.427 155.355ZM303.424 191.827L304.767 181.917L296.2 180.757L293.813 189.066L303.424 191.827ZM290.773 235.866L281.162 233.105L278.321 242.994L288.287 245.552L290.773 235.866ZM321.707 235.465L324.444 245.083L334.087 242.34L331.319 232.704L321.707 235.465ZM309.147 191.741L318.758 188.98L316.296 180.411L307.503 181.877L309.147 191.741ZM295.016 188.505L304.627 191.266L306.585 184.453L300.803 180.35L295.016 188.505ZM282.243 232.969L278.316 242.166L288.728 246.611L291.854 235.73L282.243 232.969ZM264.333 221.08L257.383 228.27L257.383 228.27L264.333 221.08ZM262.913 221.086L255.842 214.015L255.842 214.015L262.913 221.086ZM258.477 225.522L251.406 218.451L251.406 218.451L258.477 225.522ZM258.482 226.931L265.448 219.756L265.448 219.756L258.482 226.931ZM279.669 240.862L283.497 231.623L283.495 231.623L279.669 240.862ZM279.85 240.936L276.049 250.186L276.051 250.187L279.85 240.936ZM279.943 240.975L289.554 243.736L292.031 235.115L283.729 231.719L279.943 240.975ZM272.924 265.41L282.535 268.171L282.535 268.171L272.924 265.41ZM272.908 265.894L282.676 263.755L282.676 263.755L272.908 265.894ZM276.904 284.145L267.136 286.284L286.515 286.906L276.904 284.145ZM288.488 243.821L291.008 234.144L281.57 231.686L278.877 241.06L288.488 243.821ZM323.992 243.417L333.603 240.656L330.848 231.066L321.252 233.8L323.992 243.417ZM335.692 284.145L326.08 286.906L345.46 286.284L335.692 284.145ZM339.688 265.894L349.457 268.033L349.457 268.033L339.688 265.894ZM339.672 265.41L330.061 268.171L330.061 268.171L339.672 265.41ZM332.48 240.373L328.483 231.207L320.449 234.71L322.869 243.134L332.48 240.373ZM352.517 226.931L345.552 219.756L345.551 219.756L352.517 226.931ZM352.522 225.522L345.451 232.593V232.593L352.522 225.522ZM348.086 221.086L355.157 214.015L355.157 214.015L348.086 221.086ZM346.666 221.08L353.617 228.27L353.617 228.27L346.666 221.08ZM330.173 232.342L320.561 235.103L323.771 246.276L334.339 241.433L330.173 232.342ZM317.476 188.144L311.43 180.178L305.973 184.32L307.865 190.905L317.476 188.144ZM322.554 100.492V70H302.554V100.492H322.554ZM306.709 110.338C308.493 110.338 310.266 110.385 312.026 110.478L313.083 90.5061C310.971 90.3943 308.846 90.3378 306.709 90.3378V110.338ZM301.391 110.478C303.152 110.385 304.924 110.338 306.709 110.338V90.3378C304.572 90.3378 302.447 90.3943 300.335 90.5061L301.391 110.478ZM290.863 70V100.492H310.863V70H290.863ZM312.554 60H300.863V80H312.554V60ZM354.776 122.719C357.888 124.434 360.908 126.313 363.824 128.343L375.252 111.93C371.769 109.505 368.158 107.258 364.431 105.203L354.776 122.719ZM366.62 81.8074L350.943 108.961L368.263 118.961L383.941 91.8074L366.62 81.8074ZM390.405 83.9928L380.28 78.1471L370.28 95.4676L380.405 101.313L390.405 83.9928ZM378.198 125.136L394.066 97.653L376.745 87.653L360.878 115.136L378.198 125.136ZM393.825 160.453C395.663 163.495 397.358 166.64 398.901 169.879L416.957 161.279C415.13 157.443 413.121 153.715 410.942 150.109L393.825 160.453ZM426.324 129.912L397.383 146.621L407.383 163.941L436.324 147.232L426.324 129.912ZM445.83 143.697L439.984 133.572L422.664 143.572L428.51 153.697L445.83 143.697ZM412.929 174.239L442.17 157.357L432.17 140.037L402.929 156.919L412.929 174.239ZM409.395 211.897C409.479 213.676 409.522 215.467 409.522 217.269H429.522C429.522 215.15 429.472 213.043 429.372 210.948L409.395 211.897ZM453.977 201.423H419.383V221.423H453.977V201.423ZM463.977 223.114V211.423H443.977V223.114H463.977ZM419.383 233.114H453.977V213.114H419.383V233.114ZM409.522 217.269C409.522 219.07 409.479 220.861 409.395 222.64L429.372 223.589C429.472 221.494 429.522 219.387 429.522 217.269H409.522ZM204.005 222.251C203.932 220.601 203.895 218.939 203.895 217.269H183.895C183.895 219.233 183.939 221.188 184.024 223.131L204.005 222.251ZM159 232.691H194.015V212.691H159V232.691ZM149 211V222.691H169V211H149ZM194.055 201H159V221H194.055V201ZM203.895 217.269C203.895 215.335 203.945 213.415 204.042 211.509L184.068 210.491C183.953 212.736 183.895 214.996 183.895 217.269H203.895ZM211.613 176.542C212.936 173.205 214.417 169.953 216.046 166.796L198.271 157.626C196.341 161.367 194.587 165.22 193.021 169.172L211.613 176.542ZM167.398 166.952L197.933 181.845L206.701 163.869L176.166 148.976L167.398 166.952ZM167.919 143.073L162.794 153.581L180.77 162.348L185.895 151.84L167.919 143.073ZM211.542 153.223L181.291 138.468L172.523 156.444L202.775 171.199L211.542 153.223ZM282.198 140.598C289.704 138.262 297.696 137 306 137V117C295.658 117 285.664 118.574 276.256 121.501L282.198 140.598ZM256.426 118.578L271.422 137.301L287.032 124.798L272.037 106.076L256.426 118.578ZM275.28 132.205L274.218 111.807L254.245 112.847L255.308 133.246L275.28 132.205ZM222.13 122.217L260.802 141.66L269.786 123.791L231.113 104.349L222.13 122.217ZM255.619 135.954L234.689 107.375L218.554 119.191L239.484 147.771L255.619 135.954ZM218.131 145.11L245.226 151.588L249.877 132.137L222.782 125.659L218.131 145.11ZM247.498 148.283L227.528 128.313L213.386 142.455L233.356 162.426L247.498 148.283ZM226 217C226 195.792 234.239 176.53 247.711 162.205L233.142 148.504C216.321 166.39 206 190.501 206 217H226ZM306 297C261.817 297 226 261.183 226 217H206C206 272.229 250.772 317 306 317V297ZM386 217C386 261.183 350.183 297 306 297V317C361.228 317 406 272.229 406 217H386ZM306 137C350.183 137 386 172.818 386 217H406C406 161.772 361.228 117 306 117V137ZM302.081 201.736C303.367 201.911 304.676 202 306 202V182C305.577 182 305.165 181.971 304.767 181.917L302.081 201.736ZM300.384 238.627L313.036 194.588L293.813 189.066L281.162 233.105L300.384 238.627ZM305.5 227.726C301.362 227.726 297.25 227.204 293.26 226.18L288.287 245.552C293.898 246.992 299.681 247.726 305.5 247.726V227.726ZM318.971 225.847C314.598 227.091 310.065 227.726 305.5 227.726V247.726C311.919 247.726 318.294 246.833 324.444 245.083L318.971 225.847ZM299.535 194.502L312.096 238.226L331.319 232.704L318.758 188.98L299.535 194.502ZM306 202C307.625 202 309.226 201.865 310.791 201.604L307.503 181.877C307.02 181.957 306.519 182 306 182V202ZM300.803 180.35C298.482 178.703 297 176.024 297 173H277C277 182.778 281.849 191.423 289.229 196.66L300.803 180.35ZM291.854 235.73L304.627 191.266L285.405 185.744L272.632 230.208L291.854 235.73ZM257.383 228.27C263.454 234.139 270.548 238.849 278.316 242.166L286.17 223.772C280.646 221.414 275.601 218.064 271.284 213.891L257.383 228.27ZM269.984 228.157C266.439 231.703 260.83 231.602 257.383 228.27L271.284 213.891C267.043 209.79 260.169 209.688 255.842 214.015L269.984 228.157ZM265.548 232.593L269.984 228.157L255.842 214.015L251.406 218.451L265.548 232.593ZM265.448 219.756C269.125 223.326 269.035 229.106 265.548 232.593L251.406 218.451C247.138 222.719 247.047 229.767 251.517 234.106L265.448 219.756ZM283.495 231.623C276.782 228.842 270.658 224.815 265.448 219.756L251.517 234.106C258.539 240.924 266.793 246.352 275.842 250.1L283.495 231.623ZM283.65 231.687C283.598 231.665 283.547 231.644 283.497 231.623L275.841 250.1C275.911 250.129 275.981 250.158 276.049 250.186L283.65 231.687ZM283.729 231.719C283.703 231.708 283.677 231.698 283.649 231.686L276.051 250.187C276.085 250.201 276.121 250.215 276.157 250.23L283.729 231.719ZM282.535 268.171L289.554 243.736L270.332 238.214L263.312 262.649L282.535 268.171ZM282.676 263.755C282.999 265.229 282.944 266.747 282.535 268.171L263.312 262.649C262.812 264.39 262.746 266.24 263.139 268.033L282.676 263.755ZM286.673 282.006L282.676 263.755L263.139 268.033L267.136 286.284L286.673 282.006ZM278.877 241.06L267.293 281.384L286.515 286.906L298.099 246.582L278.877 241.06ZM305.5 236C300.599 236 295.73 235.373 291.008 234.144L285.968 253.498C292.332 255.155 298.895 256 305.5 256V236ZM321.252 233.8C316.139 235.257 310.838 236 305.5 236V256C312.694 256 319.84 254.998 326.731 253.035L321.252 233.8ZM345.303 281.384L333.603 240.656L314.381 246.178L326.08 286.906L345.303 281.384ZM329.92 263.755L325.923 282.006L345.46 286.284L349.457 268.033L329.92 263.755ZM330.061 268.171C329.652 266.746 329.597 265.229 329.92 263.755L349.457 268.033C349.849 266.24 349.784 264.39 349.283 262.649L330.061 268.171ZM322.869 243.134L330.061 268.171L349.283 262.649L342.091 237.612L322.869 243.134ZM345.551 219.756C340.595 224.568 334.813 228.446 328.483 231.207L336.477 249.54C345.009 245.819 352.803 240.591 359.483 234.106L345.551 219.756ZM345.451 232.593C341.964 229.106 341.874 223.326 345.552 219.756L359.482 234.106C363.952 229.767 363.861 222.719 359.593 218.451L345.451 232.593ZM341.015 228.157L345.451 232.593L359.593 218.451L355.157 214.015L341.015 228.157ZM353.617 228.27C350.17 231.602 344.561 231.703 341.015 228.157L355.157 214.015C350.831 209.689 343.956 209.79 339.715 213.891L353.617 228.27ZM334.339 241.433C341.46 238.17 347.98 233.719 353.617 228.27L339.715 213.891C335.707 217.766 331.071 220.93 326.007 223.251L334.339 241.433ZM307.865 190.905L320.561 235.103L339.784 229.581L327.087 185.383L307.865 190.905ZM315 173C315 175.922 313.618 178.518 311.43 180.178L323.522 196.109C330.477 190.83 335 182.441 335 173H315ZM306 164C310.97 164 315 168.029 315 173H335C335 156.984 322.016 144 306 144V164ZM297 173C297 168.029 301.029 164 306 164V144C289.983 144 277 156.984 277 173H297ZM286 173.105C286 184.151 294.954 193.105 306 193.105V173.105H286ZM306 153.105C294.954 153.105 286 162.059 286 173.105H306V153.105ZM326 173.105C326 162.059 317.045 153.105 306 153.105V173.105H326ZM306 193.105C317.045 193.105 326 184.151 326 173.105H306V193.105Z" fill="white" mask="url(#path-2-inside-1_1604_7754)"/>
</g>
<defs>
<clipPath id="clip0_1604_7754">
<rect width="613" height="521" fill="white"/>
</clipPath>
</defs>
</svg>
