<svg width="295" height="237" viewBox="0 0 295 237" fill="none" xmlns="http://www.w3.org/2000/svg">
<mask id="path-1-inside-1_1604_8916" fill="white">
<path fill-rule="evenodd" clip-rule="evenodd" d="M153.554 0V30.4921C151.618 30.3897 149.669 30.3378 147.709 30.3378C145.748 30.3378 143.799 30.3897 141.863 30.4921V0H153.554ZM210.538 50.1362C207.339 47.9086 204.023 45.8463 200.603 43.9611L216.28 16.8074L226.405 22.653L210.538 50.1362ZM248.929 95.579C247.244 92.0415 245.392 88.6051 243.383 85.2809L272.324 68.5718L278.17 78.6968L248.929 95.579ZM260.522 147.269C260.522 145.308 260.475 143.359 260.383 141.423H294.977V153.114H260.383C260.475 151.178 260.522 149.229 260.522 147.269ZM34.8953 147.269C34.8953 149.086 34.9354 150.894 35.0145 152.691H0V141H35.0547C34.9489 143.076 34.8953 145.166 34.8953 147.269ZM48.1585 92.2108C46.3792 95.66 44.7618 99.2124 43.3169 102.857L12.782 87.9643L17.9071 77.4562L48.1585 92.2108ZM147 57.0004C137.677 57.0004 128.684 58.418 120.227 61.0496L105.232 42.3269L106.294 62.7254L67.6215 43.283L88.5515 71.8624L61.4567 65.3844L81.4268 85.3546C66.2801 101.46 57 123.146 57 147C57 196.706 97.2944 237 147 237C196.706 237 237 196.706 237 147C237 97.2947 196.706 57.0004 147 57.0004ZM147 122C146.126 122 145.266 121.941 144.424 121.827L131.773 165.866C136.574 167.098 141.521 167.726 146.5 167.726C151.992 167.726 157.446 166.962 162.707 165.465L150.147 121.741C149.123 121.911 148.072 122 147 122ZM128 103C128 109.401 131.165 115.063 136.016 118.505L123.243 162.969C116.597 160.131 110.527 156.102 105.333 151.08C104.936 150.696 104.304 150.696 103.913 151.086L99.4771 155.522C99.0865 155.913 99.086 156.547 99.4823 156.931C105.599 162.869 112.787 167.597 120.669 170.862C120.729 170.887 120.789 170.912 120.85 170.936C120.881 170.949 120.912 170.962 120.943 170.975L113.924 195.41C113.878 195.568 113.873 195.735 113.908 195.894L117.904 214.145L129.488 173.821C135.031 175.264 140.747 176 146.5 176C152.766 176 158.989 175.127 164.992 173.417L176.692 214.145L180.688 195.894C180.723 195.735 180.718 195.568 180.672 195.41L173.48 170.373C180.911 167.133 187.699 162.579 193.517 156.931C193.913 156.547 193.913 155.913 193.522 155.522L189.086 151.086C188.696 150.696 188.063 150.696 187.666 151.08C182.843 155.743 177.266 159.55 171.173 162.342L158.476 118.144C163.047 114.674 166 109.182 166 103C166 92.5066 157.493 84 147 84C136.506 84 128 92.5066 128 103ZM147 113.105C141.477 113.105 137 108.628 137 103.105C137 97.5822 141.477 93.1051 147 93.1051C152.522 93.1051 157 97.5822 157 103.105C157 108.628 152.522 113.105 147 113.105Z"/>
</mask>
<path fill-rule="evenodd" clip-rule="evenodd" d="M153.554 0V30.4921C151.618 30.3897 149.669 30.3378 147.709 30.3378C145.748 30.3378 143.799 30.3897 141.863 30.4921V0H153.554ZM210.538 50.1362C207.339 47.9086 204.023 45.8463 200.603 43.9611L216.28 16.8074L226.405 22.653L210.538 50.1362ZM248.929 95.579C247.244 92.0415 245.392 88.6051 243.383 85.2809L272.324 68.5718L278.17 78.6968L248.929 95.579ZM260.522 147.269C260.522 145.308 260.475 143.359 260.383 141.423H294.977V153.114H260.383C260.475 151.178 260.522 149.229 260.522 147.269ZM34.8953 147.269C34.8953 149.086 34.9354 150.894 35.0145 152.691H0V141H35.0547C34.9489 143.076 34.8953 145.166 34.8953 147.269ZM48.1585 92.2108C46.3792 95.66 44.7618 99.2124 43.3169 102.857L12.782 87.9643L17.9071 77.4562L48.1585 92.2108ZM147 57.0004C137.677 57.0004 128.684 58.418 120.227 61.0496L105.232 42.3269L106.294 62.7254L67.6215 43.283L88.5515 71.8624L61.4567 65.3844L81.4268 85.3546C66.2801 101.46 57 123.146 57 147C57 196.706 97.2944 237 147 237C196.706 237 237 196.706 237 147C237 97.2947 196.706 57.0004 147 57.0004ZM147 122C146.126 122 145.266 121.941 144.424 121.827L131.773 165.866C136.574 167.098 141.521 167.726 146.5 167.726C151.992 167.726 157.446 166.962 162.707 165.465L150.147 121.741C149.123 121.911 148.072 122 147 122ZM128 103C128 109.401 131.165 115.063 136.016 118.505L123.243 162.969C116.597 160.131 110.527 156.102 105.333 151.08C104.936 150.696 104.304 150.696 103.913 151.086L99.4771 155.522C99.0865 155.913 99.086 156.547 99.4823 156.931C105.599 162.869 112.787 167.597 120.669 170.862C120.729 170.887 120.789 170.912 120.85 170.936C120.881 170.949 120.912 170.962 120.943 170.975L113.924 195.41C113.878 195.568 113.873 195.735 113.908 195.894L117.904 214.145L129.488 173.821C135.031 175.264 140.747 176 146.5 176C152.766 176 158.989 175.127 164.992 173.417L176.692 214.145L180.688 195.894C180.723 195.735 180.718 195.568 180.672 195.41L173.48 170.373C180.911 167.133 187.699 162.579 193.517 156.931C193.913 156.547 193.913 155.913 193.522 155.522L189.086 151.086C188.696 150.696 188.063 150.696 187.666 151.08C182.843 155.743 177.266 159.55 171.173 162.342L158.476 118.144C163.047 114.674 166 109.182 166 103C166 92.5066 157.493 84 147 84C136.506 84 128 92.5066 128 103ZM147 113.105C141.477 113.105 137 108.628 137 103.105C137 97.5822 141.477 93.1051 147 93.1051C152.522 93.1051 157 97.5822 157 103.105C157 108.628 152.522 113.105 147 113.105Z" fill="white"/>
<path d="M153.554 30.4921L153.026 40.4781L163.554 41.0352V30.4921H153.554ZM153.554 0H163.554V-10H153.554V0ZM141.863 30.4921H131.863V41.0352L142.391 40.4781L141.863 30.4921ZM141.863 0V-10H131.863V0H141.863ZM200.603 43.9611L191.943 38.961L186.843 47.7947L195.776 52.7187L200.603 43.9611ZM210.538 50.1362L204.824 58.3428L213.756 64.5623L219.198 55.1362L210.538 50.1362ZM216.28 16.8074L221.28 8.14711L212.62 3.14711L207.62 11.8074L216.28 16.8074ZM226.405 22.653L235.066 27.653L240.066 18.9928L231.405 13.9928L226.405 22.653ZM243.383 85.2809L238.383 76.6206L229.548 81.7217L234.825 90.4532L243.383 85.2809ZM248.929 95.579L239.901 99.8787L244.555 109.651L253.929 104.239L248.929 95.579ZM272.324 68.5718L280.984 63.5718L275.984 54.9115L267.324 59.9115L272.324 68.5718ZM278.17 78.6968L283.17 87.357L291.83 82.357L286.83 73.6968L278.17 78.6968ZM260.383 141.423V131.423H249.897L250.395 141.897L260.383 141.423ZM294.977 141.423H304.977V131.423H294.977V141.423ZM294.977 153.114V163.114H304.977V153.114H294.977ZM260.383 153.114L250.395 152.64L249.897 163.114H260.383V153.114ZM35.0145 152.691V162.691H45.4646L45.0048 152.251L35.0145 152.691ZM0 152.691H-10V162.691H0V152.691ZM0 141V131H-10V141H0ZM35.0547 141L45.0417 141.509L45.5773 131H35.0547V141ZM43.3169 102.857L38.9332 111.845L48.6352 116.577L52.6132 106.542L43.3169 102.857ZM48.1585 92.2108L57.0457 96.7955L61.7346 87.7063L52.5423 83.2229L48.1585 92.2108ZM12.782 87.9643L3.79403 83.5806L-0.589679 92.5686L8.39826 96.9523L12.782 87.9643ZM17.9071 77.4562L22.2908 68.4683L13.3029 64.0846L8.91918 73.0725L17.9071 77.4562ZM120.227 61.0496L112.422 67.3009L116.686 72.6245L123.198 70.598L120.227 61.0496ZM105.232 42.3269L113.037 36.0755L93.6304 11.8456L95.2451 42.847L105.232 42.3269ZM106.294 62.7254L101.802 71.6599L117.175 79.3887L116.28 62.2053L106.294 62.7254ZM67.6215 43.283L72.1133 34.3485L59.5537 49.1914L67.6215 43.283ZM88.5515 71.8624L86.2261 81.5883L112.705 87.9191L96.6193 65.954L88.5515 71.8624ZM61.4567 65.3844L63.782 55.6585L29.3585 47.4284L54.3856 72.4555L61.4567 65.3844ZM81.4268 85.3546L88.7114 92.2055L95.3553 85.1409L88.4979 78.2835L81.4268 85.3546ZM144.424 121.827L145.767 111.917L137.2 110.757L134.813 119.066L144.424 121.827ZM131.773 165.866L122.162 163.105L119.321 172.994L129.287 175.552L131.773 165.866ZM162.707 165.465L165.444 175.083L175.087 172.34L172.319 162.704L162.707 165.465ZM150.147 121.741L159.758 118.98L157.296 110.411L148.503 111.877L150.147 121.741ZM136.016 118.505L145.627 121.266L147.585 114.453L141.803 110.35L136.016 118.505ZM123.243 162.969L119.316 172.166L129.728 176.611L132.854 165.73L123.243 162.969ZM105.333 151.08L98.3827 158.27L98.3828 158.27L105.333 151.08ZM103.913 151.086L96.8422 144.015L96.8422 144.015L103.913 151.086ZM99.4771 155.522L92.406 148.451L92.4059 148.451L99.4771 155.522ZM99.4823 156.931L106.448 149.756L106.448 149.756L99.4823 156.931ZM120.669 170.862L124.497 161.623L124.495 161.623L120.669 170.862ZM120.85 170.936L117.049 180.186L117.051 180.187L120.85 170.936ZM120.943 170.975L130.554 173.736L133.031 165.115L124.729 161.719L120.943 170.975ZM113.924 195.41L123.535 198.171L123.535 198.171L113.924 195.41ZM113.908 195.894L123.676 193.755L123.676 193.755L113.908 195.894ZM117.904 214.145L108.136 216.284L127.515 216.906L117.904 214.145ZM129.488 173.821L132.008 164.144L122.57 161.686L119.877 171.06L129.488 173.821ZM164.992 173.417L174.603 170.656L171.848 161.066L162.252 163.8L164.992 173.417ZM176.692 214.145L167.08 216.906L186.46 216.284L176.692 214.145ZM180.688 195.894L190.457 198.033L190.457 198.033L180.688 195.894ZM180.672 195.41L171.061 198.171L171.061 198.171L180.672 195.41ZM173.48 170.373L169.483 161.207L161.449 164.71L163.869 173.134L173.48 170.373ZM193.517 156.931L186.552 149.756L186.551 149.756L193.517 156.931ZM193.522 155.522L186.451 162.593L186.451 162.593L193.522 155.522ZM189.086 151.086L196.157 144.015L196.157 144.015L189.086 151.086ZM187.666 151.08L194.617 158.27L194.617 158.27L187.666 151.08ZM171.173 162.342L161.561 165.103L164.771 176.276L175.339 171.433L171.173 162.342ZM158.476 118.144L152.43 110.178L146.973 114.32L148.865 120.905L158.476 118.144ZM163.554 30.4921V0H143.554V30.4921H163.554ZM147.709 40.3378C149.493 40.3378 151.266 40.385 153.026 40.4781L154.083 20.5061C151.971 20.3943 149.846 20.3378 147.709 20.3378V40.3378ZM142.391 40.4781C144.152 40.385 145.924 40.3378 147.709 40.3378V20.3378C145.572 20.3378 143.447 20.3943 141.335 20.5061L142.391 40.4781ZM131.863 0V30.4921H151.863V0H131.863ZM153.554 -10H141.863V10H153.554V-10ZM195.776 52.7187C198.888 54.4344 201.908 56.3126 204.824 58.3428L216.252 41.9297C212.769 39.5046 209.158 37.2581 205.431 35.2034L195.776 52.7187ZM207.62 11.8074L191.943 38.961L209.263 48.9611L224.941 21.8074L207.62 11.8074ZM231.405 13.9928L221.28 8.14711L211.28 25.4676L221.405 31.3133L231.405 13.9928ZM219.198 55.1362L235.066 27.653L217.745 17.653L201.878 45.1362L219.198 55.1362ZM234.825 90.4532C236.663 93.4951 238.358 96.6403 239.901 99.8787L257.957 91.2793C256.13 87.4427 254.121 83.7151 251.942 80.1086L234.825 90.4532ZM267.324 59.9115L238.383 76.6206L248.383 93.9411L277.324 77.232L267.324 59.9115ZM286.83 73.6968L280.984 63.5718L263.664 73.5718L269.51 83.6968L286.83 73.6968ZM253.929 104.239L283.17 87.357L273.17 70.0365L243.929 86.9187L253.929 104.239ZM250.395 141.897C250.479 143.676 250.522 145.467 250.522 147.269H270.522C270.522 145.15 270.472 143.043 270.372 140.948L250.395 141.897ZM294.977 131.423H260.383V151.423H294.977V131.423ZM304.977 153.114V141.423H284.977V153.114H304.977ZM260.383 163.114H294.977V143.114H260.383V163.114ZM250.522 147.269C250.522 149.07 250.479 150.861 250.395 152.64L270.372 153.589C270.472 151.494 270.522 149.387 270.522 147.269H250.522ZM45.0048 152.251C44.9321 150.601 44.8953 148.939 44.8953 147.269H24.8953C24.8953 149.233 24.9386 151.188 25.0242 153.131L45.0048 152.251ZM0 162.691H35.0145V142.691H0V162.691ZM-10 141V152.691H10V141H-10ZM35.0547 131H0V151H35.0547V131ZM44.8953 147.269C44.8953 145.335 44.9446 143.415 45.0417 141.509L25.0676 140.491C24.9532 142.736 24.8953 144.996 24.8953 147.269H44.8953ZM52.6132 106.542C53.9362 103.205 55.417 99.9527 57.0457 96.7955L39.2714 87.6262C37.3414 91.3674 35.5874 95.22 34.0207 99.1721L52.6132 106.542ZM8.39826 96.9523L38.9332 111.845L47.7007 93.8693L17.1657 78.9764L8.39826 96.9523ZM8.91918 73.0725L3.79403 83.5806L21.7699 92.3481L26.8951 81.8399L8.91918 73.0725ZM52.5423 83.2229L22.2908 68.4683L13.5234 86.4442L43.7748 101.199L52.5423 83.2229ZM123.198 70.598C130.704 68.2624 138.696 67.0004 147 67.0004V47.0004C136.658 47.0004 126.664 48.5737 117.256 51.5012L123.198 70.598ZM97.4264 48.5782L112.422 67.3009L128.032 54.7983L113.037 36.0755L97.4264 48.5782ZM116.28 62.2053L115.218 41.8067L95.2451 42.847L96.3075 63.2456L116.28 62.2053ZM63.1298 52.2174L101.802 71.6599L110.786 53.791L72.1133 34.3485L63.1298 52.2174ZM96.6193 65.954L75.6894 37.3745L59.5537 49.1914L80.4836 77.7708L96.6193 65.954ZM59.1313 75.1103L86.2261 81.5883L90.8768 62.1365L63.782 55.6585L59.1313 75.1103ZM88.4979 78.2835L68.5277 58.3134L54.3856 72.4555L74.3557 92.4256L88.4979 78.2835ZM67 147C67 125.792 75.2395 106.53 88.7114 92.2055L74.1422 78.5036C57.3206 96.3901 47 120.501 47 147H67ZM147 227C102.817 227 67 191.183 67 147H47C47 202.229 91.7715 247 147 247V227ZM227 147C227 191.183 191.183 227 147 227V247C202.228 247 247 202.229 247 147H227ZM147 67.0004C191.183 67.0004 227 102.818 227 147H247C247 91.7719 202.228 47.0004 147 47.0004V67.0004ZM143.081 131.736C144.367 131.911 145.676 132 147 132V112C146.577 112 146.165 111.971 145.767 111.917L143.081 131.736ZM141.384 168.627L154.036 124.588L134.813 119.066L122.162 163.105L141.384 168.627ZM146.5 157.726C142.362 157.726 138.25 157.204 134.26 156.18L129.287 175.552C134.898 176.992 140.681 177.726 146.5 177.726V157.726ZM159.971 155.847C155.598 157.091 151.065 157.726 146.5 157.726V177.726C152.919 177.726 159.294 176.833 165.444 175.083L159.971 155.847ZM140.535 124.502L153.096 168.226L172.319 162.704L159.758 118.98L140.535 124.502ZM147 132C148.625 132 150.226 131.865 151.791 131.604L148.503 111.877C148.02 111.957 147.519 112 147 112V132ZM141.803 110.35C139.482 108.703 138 106.024 138 103H118C118 112.778 122.849 121.423 130.229 126.66L141.803 110.35ZM132.854 165.73L145.627 121.266L126.405 115.744L113.632 160.208L132.854 165.73ZM98.3828 158.27C104.454 164.139 111.548 168.849 119.316 172.166L127.17 153.772C121.646 151.414 116.601 148.064 112.284 143.891L98.3828 158.27ZM110.984 158.157C107.439 161.703 101.83 161.602 98.3827 158.27L112.284 143.891C108.043 139.79 101.169 139.688 96.8422 144.015L110.984 158.157ZM106.548 162.593L110.984 158.157L96.8422 144.015L92.406 148.451L106.548 162.593ZM106.448 149.756C110.125 153.326 110.035 159.106 106.548 162.593L92.4059 148.451C88.1379 152.719 88.0469 159.767 92.5169 164.106L106.448 149.756ZM124.495 161.623C117.782 158.842 111.658 154.815 106.448 149.756L92.5168 164.106C99.5394 170.924 107.793 176.352 116.842 180.1L124.495 161.623ZM124.65 161.687C124.598 161.665 124.547 161.644 124.497 161.623L116.841 180.1C116.911 180.129 116.981 180.158 117.049 180.186L124.65 161.687ZM124.729 161.719C124.703 161.709 124.677 161.698 124.649 161.686L117.051 180.187C117.085 180.201 117.121 180.215 117.157 180.23L124.729 161.719ZM123.535 198.171L130.554 173.736L111.332 168.214L104.312 192.649L123.535 198.171ZM123.676 193.755C123.999 195.229 123.944 196.747 123.535 198.171L104.312 192.649C103.812 194.39 103.746 196.24 104.139 198.033L123.676 193.755ZM127.673 212.006L123.676 193.755L104.139 198.033L108.136 216.284L127.673 212.006ZM119.877 171.06L108.293 211.384L127.515 216.906L139.099 176.582L119.877 171.06ZM146.5 166C141.599 166 136.73 165.373 132.008 164.144L126.968 183.498C133.332 185.155 139.895 186 146.5 186V166ZM162.252 163.8C157.139 165.256 151.838 166 146.5 166V186C153.694 186 160.84 184.998 167.731 183.035L162.252 163.8ZM186.303 211.384L174.603 170.656L155.381 176.178L167.08 216.906L186.303 211.384ZM170.92 193.755L166.923 212.006L186.46 216.284L190.457 198.033L170.92 193.755ZM171.061 198.171C170.652 196.746 170.597 195.229 170.92 193.755L190.457 198.033C190.849 196.24 190.784 194.39 190.283 192.649L171.061 198.171ZM163.869 173.134L171.061 198.171L190.283 192.649L183.091 167.612L163.869 173.134ZM186.551 149.756C181.595 154.568 175.813 158.446 169.483 161.207L177.477 179.54C186.009 175.819 193.803 170.591 200.483 164.106L186.551 149.756ZM186.451 162.593C182.964 159.106 182.874 153.326 186.552 149.756L200.482 164.106C204.952 159.767 204.861 152.719 200.593 148.451L186.451 162.593ZM182.015 158.157L186.451 162.593L200.593 148.451L196.157 144.015L182.015 158.157ZM194.617 158.27C191.17 161.602 185.561 161.703 182.015 158.157L196.157 144.015C191.83 139.689 184.956 139.79 180.715 143.891L194.617 158.27ZM175.339 171.433C182.46 168.17 188.98 163.719 194.617 158.27L180.715 143.891C176.707 147.766 172.071 150.93 167.007 153.251L175.339 171.433ZM148.865 120.905L161.561 165.103L180.784 159.581L168.087 115.383L148.865 120.905ZM156 103C156 105.922 154.618 108.518 152.43 110.178L164.522 126.109C171.477 120.83 176 112.441 176 103H156ZM147 94C151.97 94 156 98.0294 156 103H176C176 86.9837 163.016 74 147 74V94ZM138 103C138 98.0294 142.029 94 147 94V74C130.983 74 118 86.9837 118 103H138ZM127 103.105C127 114.151 135.954 123.105 147 123.105V103.105H127ZM147 83.1051C135.954 83.1051 127 92.0594 127 103.105H147V83.1051ZM167 103.105C167 92.0594 158.045 83.1051 147 83.1051V103.105H167ZM147 123.105C158.045 123.105 167 114.151 167 103.105H147V123.105Z" fill="white" mask="url(#path-1-inside-1_1604_8916)"/>
</svg>
